<svg width="330" height="472" viewBox="0 0 330 472" fill="none" xmlns="http://www.w3.org/2000/svg">
<circle cx="169" cy="240" r="161" fill="#DACEBF"/>
<circle cx="74.5" cy="428.5" r="43.5" fill="#DACEBF"/>
<circle cx="154" cy="444" r="15" fill="#DACEBF"/>
<circle cx="154" cy="25" r="15" fill="#DACEBF"/>
<circle cx="238.5" cy="43.5" r="43.5" fill="#DACEBF"/>
<circle cx="79.5" cy="104.5" r="79.5" fill="#DACEBF"/>
<circle cx="238.5" cy="369.5" r="79.5" fill="#DACEBF"/>
<path d="M80.7741 217.818L89.3651 241.942H89.544L98.1349 217.818H99.8224L90.375 244H88.5341L79.0866 217.818H80.7741ZM124.301 230.909C124.301 233.611 123.832 235.972 122.895 237.991C121.957 240.003 120.653 241.567 118.983 242.683C117.321 243.8 115.403 244.358 113.23 244.358C111.048 244.358 109.122 243.8 107.451 242.683C105.789 241.558 104.49 239.99 103.552 237.979C102.615 235.959 102.146 233.602 102.146 230.909C102.146 228.207 102.615 225.851 103.552 223.839C104.498 221.828 105.802 220.264 107.464 219.148C109.126 218.023 111.048 217.46 113.23 217.46C115.403 217.46 117.321 218.018 118.983 219.135C120.653 220.251 121.957 221.82 122.895 223.839C123.832 225.851 124.301 228.207 124.301 230.909ZM122.741 230.909C122.741 228.48 122.332 226.375 121.514 224.594C120.704 222.812 119.583 221.436 118.152 220.464C116.72 219.484 115.079 218.994 113.23 218.994C111.38 218.994 109.74 219.48 108.308 220.452C106.876 221.415 105.751 222.791 104.933 224.581C104.123 226.362 103.718 228.472 103.718 230.909C103.718 233.321 104.119 235.422 104.92 237.212C105.73 238.993 106.85 240.374 108.282 241.354C109.714 242.334 111.363 242.824 113.23 242.824C115.079 242.824 116.72 242.338 118.152 241.366C119.583 240.386 120.704 239.006 121.514 237.224C122.332 235.443 122.741 233.338 122.741 230.909ZM127.717 219.301V217.818H146.062V219.301H137.689V244H136.091V219.301H127.717ZM151.886 244V217.818H166.46V219.301H153.484V230.155H165.68V231.638H153.484V242.517H166.766V244H151.886ZM174.453 244H168.521L181.906 217.818H189.039L193.718 244H187.787L184.603 223.801H184.399L174.453 244ZM175.808 233.709H189.819L189.078 238.03H175.066L175.808 233.709ZM196.87 244L201.216 217.818H211.546C213.523 217.818 215.147 218.197 216.417 218.956C217.695 219.706 218.59 220.75 219.101 222.088C219.621 223.418 219.74 224.952 219.459 226.69C219.169 228.437 218.539 229.976 217.567 231.305C216.604 232.626 215.351 233.658 213.809 234.399C212.266 235.141 210.485 235.511 208.465 235.511H201.881L202.61 231.075H208.299C209.373 231.075 210.289 230.892 211.047 230.526C211.814 230.151 212.424 229.635 212.875 228.979C213.327 228.314 213.621 227.551 213.757 226.69C213.902 225.812 213.855 225.05 213.617 224.402C213.378 223.754 212.939 223.251 212.3 222.893C211.669 222.527 210.821 222.344 209.756 222.344H206.023L202.405 244H196.87ZM220.178 244L224.525 217.818H234.854C236.832 217.818 238.455 218.197 239.725 218.956C241.004 219.706 241.898 220.75 242.41 222.088C242.93 223.418 243.049 224.952 242.768 226.69C242.478 228.437 241.847 229.976 240.876 231.305C239.913 232.626 238.66 233.658 237.117 234.399C235.575 235.141 233.793 235.511 231.773 235.511H225.19L225.918 231.075H231.607C232.681 231.075 233.597 230.892 234.356 230.526C235.123 230.151 235.732 229.635 236.184 228.979C236.636 228.314 236.93 227.551 237.066 226.69C237.211 225.812 237.164 225.05 236.925 224.402C236.687 223.754 236.248 223.251 235.609 222.893C234.978 222.527 234.13 222.344 233.065 222.344H229.332L225.714 244H220.178Z" fill="#4E2525"/>
<path d="M44.6818 270V258.364H45.392V269.341H51.0739V270H44.6818ZM53.6818 270V258.364H60.1591V259.023H54.392V263.847H59.8125V264.506H54.392V269.341H60.2955V270H53.6818ZM62.6548 258.364L66.473 269.085H66.5526L70.3707 258.364H71.1207L66.9219 270H66.1037L61.9048 258.364H62.6548ZM73.2912 270V258.364H79.7685V259.023H74.0014V263.847H79.4219V264.506H74.0014V269.341H79.9048V270H73.2912ZM86.7642 270H86.0142L90.2131 258.364H91.0312L95.2301 270H94.4801L90.6506 259.278H90.5938L86.7642 270ZM87.8267 265.619H93.4176V266.278H87.8267V265.619ZM105.128 270H101.901V258.364H105.378C106.469 258.364 107.402 258.595 108.179 259.057C108.955 259.519 109.55 260.182 109.963 261.045C110.38 261.905 110.586 262.937 110.582 264.142C110.579 265.373 110.363 266.426 109.935 267.301C109.507 268.172 108.887 268.841 108.077 269.307C107.266 269.769 106.283 270 105.128 270ZM102.611 269.341H105.099C106.137 269.341 107.012 269.134 107.724 268.722C108.437 268.305 108.974 267.708 109.338 266.932C109.705 266.155 109.887 265.225 109.884 264.142C109.884 263.074 109.707 262.159 109.355 261.398C109.003 260.633 108.49 260.045 107.815 259.636C107.145 259.227 106.323 259.023 105.349 259.023H102.611V269.341ZM113.354 270V258.364H119.831V259.023H114.064V263.847H119.484V264.506H114.064V269.341H119.967V270H113.354ZM122.776 258.364H123.548L128.031 268.977H128.111L132.594 258.364H133.366V270H132.685V260.051H132.616L128.406 270H127.736L123.526 260.051H123.457V270H122.776V258.364ZM145.984 264.182C145.984 265.383 145.776 266.432 145.359 267.33C144.943 268.223 144.363 268.919 143.621 269.415C142.882 269.911 142.03 270.159 141.064 270.159C140.094 270.159 139.238 269.911 138.496 269.415C137.757 268.915 137.179 268.218 136.763 267.324C136.346 266.426 136.138 265.379 136.138 264.182C136.138 262.981 136.346 261.934 136.763 261.04C137.183 260.146 137.763 259.451 138.501 258.955C139.24 258.455 140.094 258.205 141.064 258.205C142.03 258.205 142.882 258.453 143.621 258.949C144.363 259.445 144.943 260.142 145.359 261.04C145.776 261.934 145.984 262.981 145.984 264.182ZM145.291 264.182C145.291 263.102 145.109 262.167 144.746 261.375C144.386 260.583 143.888 259.972 143.251 259.54C142.615 259.104 141.886 258.886 141.064 258.886C140.242 258.886 139.513 259.102 138.876 259.534C138.24 259.962 137.74 260.574 137.376 261.369C137.017 262.161 136.837 263.098 136.837 264.182C136.837 265.254 137.015 266.187 137.371 266.983C137.731 267.775 138.229 268.388 138.865 268.824C139.501 269.259 140.234 269.477 141.064 269.477C141.886 269.477 142.615 269.261 143.251 268.83C143.888 268.394 144.386 267.78 144.746 266.989C145.109 266.197 145.291 265.261 145.291 264.182ZM157.624 262H156.896C156.821 261.606 156.679 261.225 156.47 260.858C156.262 260.487 155.993 260.153 155.663 259.858C155.338 259.559 154.959 259.322 154.527 259.148C154.095 258.973 153.618 258.886 153.095 258.886C152.33 258.886 151.625 259.091 150.982 259.5C150.341 259.905 149.828 260.502 149.442 261.29C149.059 262.078 148.868 263.042 148.868 264.182C148.868 265.33 149.059 266.297 149.442 267.085C149.828 267.873 150.341 268.47 150.982 268.875C151.625 269.277 152.33 269.477 153.095 269.477C153.618 269.477 154.095 269.392 154.527 269.222C154.959 269.047 155.338 268.812 155.663 268.517C155.993 268.218 156.262 267.883 156.47 267.511C156.679 267.14 156.821 266.758 156.896 266.364H157.624C157.54 266.833 157.379 267.294 157.141 267.744C156.906 268.195 156.595 268.604 156.209 268.972C155.826 269.335 155.374 269.625 154.851 269.841C154.332 270.053 153.747 270.159 153.095 270.159C152.125 270.159 151.271 269.913 150.533 269.42C149.794 268.924 149.214 268.227 148.794 267.33C148.377 266.432 148.169 265.383 148.169 264.182C148.169 262.981 148.377 261.932 148.794 261.034C149.214 260.136 149.794 259.441 150.533 258.949C151.271 258.453 152.125 258.205 153.095 258.205C153.747 258.205 154.332 258.312 154.851 258.528C155.374 258.741 155.826 259.028 156.209 259.392C156.595 259.752 156.906 260.157 157.141 260.608C157.379 261.059 157.54 261.523 157.624 262ZM160.354 270V258.364H163.939C164.674 258.364 165.306 258.508 165.837 258.795C166.367 259.083 166.774 259.483 167.058 259.994C167.342 260.502 167.484 261.093 167.484 261.767C167.484 262.434 167.342 263.021 167.058 263.528C166.774 264.032 166.367 264.426 165.837 264.71C165.31 264.994 164.679 265.136 163.945 265.136H160.734V264.472H163.928C164.526 264.472 165.037 264.36 165.462 264.136C165.886 263.913 166.212 263.6 166.439 263.199C166.666 262.794 166.78 262.316 166.78 261.767C166.78 261.214 166.666 260.733 166.439 260.324C166.212 259.911 165.884 259.591 165.456 259.364C165.032 259.136 164.52 259.023 163.922 259.023H161.064V270H160.354ZM165.132 264.727L167.996 270H167.178L164.331 264.727H165.132ZM169.874 270H169.124L173.322 258.364H174.141L178.339 270H177.589L173.76 259.278H173.703L169.874 270ZM170.936 265.619H176.527V266.278H170.936V265.619ZM188.827 262H188.099C188.024 261.606 187.882 261.225 187.673 260.858C187.465 260.487 187.196 260.153 186.866 259.858C186.541 259.559 186.162 259.322 185.73 259.148C185.298 258.973 184.821 258.886 184.298 258.886C183.533 258.886 182.829 259.091 182.185 259.5C181.545 259.905 181.031 260.502 180.645 261.29C180.262 262.078 180.071 263.042 180.071 264.182C180.071 265.33 180.262 266.297 180.645 267.085C181.031 267.873 181.545 268.47 182.185 268.875C182.829 269.277 183.533 269.477 184.298 269.477C184.821 269.477 185.298 269.392 185.73 269.222C186.162 269.047 186.541 268.812 186.866 268.517C187.196 268.218 187.465 267.883 187.673 267.511C187.882 267.14 188.024 266.758 188.099 266.364H188.827C188.743 266.833 188.582 267.294 188.344 267.744C188.109 268.195 187.798 268.604 187.412 268.972C187.029 269.335 186.577 269.625 186.054 269.841C185.535 270.053 184.95 270.159 184.298 270.159C183.329 270.159 182.474 269.913 181.736 269.42C180.997 268.924 180.418 268.227 179.997 267.33C179.58 266.432 179.372 265.383 179.372 264.182C179.372 262.981 179.58 261.932 179.997 261.034C180.418 260.136 180.997 259.441 181.736 258.949C182.474 258.453 183.329 258.205 184.298 258.205C184.95 258.205 185.535 258.312 186.054 258.528C186.577 258.741 187.029 259.028 187.412 259.392C187.798 259.752 188.109 260.157 188.344 260.608C188.582 261.059 188.743 261.523 188.827 262ZM192.267 258.364V270H191.557V258.364H192.267ZM195.186 270H194.436L198.635 258.364H199.453L203.652 270H202.902L199.072 259.278H199.016L195.186 270ZM196.249 265.619H201.839V266.278H196.249V265.619ZM219.186 262H218.459C218.383 261.606 218.241 261.225 218.033 260.858C217.824 260.487 217.555 260.153 217.226 259.858C216.9 259.559 216.521 259.322 216.089 259.148C215.658 258.973 215.18 258.886 214.658 258.886C213.893 258.886 213.188 259.091 212.544 259.5C211.904 259.905 211.391 260.502 211.004 261.29C210.622 262.078 210.43 263.042 210.43 264.182C210.43 265.33 210.622 266.297 211.004 267.085C211.391 267.873 211.904 268.47 212.544 268.875C213.188 269.277 213.893 269.477 214.658 269.477C215.18 269.477 215.658 269.392 216.089 269.222C216.521 269.047 216.9 268.812 217.226 268.517C217.555 268.218 217.824 267.883 218.033 267.511C218.241 267.14 218.383 266.758 218.459 266.364H219.186C219.103 266.833 218.942 267.294 218.703 267.744C218.468 268.195 218.158 268.604 217.771 268.972C217.389 269.335 216.936 269.625 216.413 269.841C215.894 270.053 215.309 270.159 214.658 270.159C213.688 270.159 212.834 269.913 212.095 269.42C211.357 268.924 210.777 268.227 210.357 267.33C209.94 266.432 209.732 265.383 209.732 264.182C209.732 262.981 209.94 261.932 210.357 261.034C210.777 260.136 211.357 259.441 212.095 258.949C212.834 258.453 213.688 258.205 214.658 258.205C215.309 258.205 215.894 258.312 216.413 258.528C216.936 258.741 217.389 259.028 217.771 259.392C218.158 259.752 218.468 260.157 218.703 260.608C218.942 261.059 219.103 261.523 219.186 262ZM231.172 264.182C231.172 265.383 230.964 266.432 230.547 267.33C230.13 268.223 229.551 268.919 228.808 269.415C228.07 269.911 227.217 270.159 226.251 270.159C225.282 270.159 224.426 269.911 223.683 269.415C222.945 268.915 222.367 268.218 221.95 267.324C221.534 266.426 221.325 265.379 221.325 264.182C221.325 262.981 221.534 261.934 221.95 261.04C222.371 260.146 222.95 259.451 223.689 258.955C224.428 258.455 225.282 258.205 226.251 258.205C227.217 258.205 228.07 258.453 228.808 258.949C229.551 259.445 230.13 260.142 230.547 261.04C230.964 261.934 231.172 262.981 231.172 264.182ZM230.479 264.182C230.479 263.102 230.297 262.167 229.933 261.375C229.573 260.583 229.075 259.972 228.439 259.54C227.803 259.104 227.073 258.886 226.251 258.886C225.429 258.886 224.7 259.102 224.064 259.534C223.428 259.962 222.928 260.574 222.564 261.369C222.204 262.161 222.024 263.098 222.024 264.182C222.024 265.254 222.202 266.187 222.558 266.983C222.918 267.775 223.416 268.388 224.053 268.824C224.689 269.259 225.422 269.477 226.251 269.477C227.073 269.477 227.803 269.261 228.439 268.83C229.075 268.394 229.573 267.78 229.933 266.989C230.297 266.197 230.479 265.261 230.479 264.182ZM242.839 258.364V270H242.146L234.726 259.653H234.658V270H233.947V258.364H234.646L242.067 268.722H242.135V258.364H242.839ZM252.47 261.273C252.41 260.549 252.114 259.964 251.584 259.517C251.057 259.07 250.375 258.847 249.538 258.847C248.974 258.847 248.472 258.951 248.033 259.159C247.593 259.367 247.249 259.652 246.999 260.011C246.749 260.371 246.624 260.784 246.624 261.25C246.624 261.549 246.68 261.82 246.794 262.062C246.911 262.301 247.076 262.515 247.288 262.705C247.5 262.89 247.752 263.053 248.044 263.193C248.336 263.333 248.658 263.456 249.01 263.562L250.283 263.938C250.718 264.07 251.12 264.223 251.487 264.398C251.858 264.572 252.18 264.78 252.453 265.023C252.73 265.261 252.944 265.542 253.095 265.864C253.25 266.186 253.328 266.557 253.328 266.977C253.328 267.591 253.169 268.14 252.851 268.625C252.536 269.11 252.088 269.492 251.504 269.773C250.925 270.049 250.241 270.188 249.453 270.188C248.703 270.188 248.05 270.061 247.493 269.807C246.94 269.553 246.502 269.201 246.18 268.75C245.858 268.295 245.677 267.773 245.635 267.182H246.362C246.4 267.663 246.554 268.08 246.822 268.432C247.095 268.78 247.457 269.049 247.908 269.239C248.358 269.428 248.874 269.523 249.453 269.523C250.078 269.523 250.629 269.417 251.107 269.205C251.584 268.989 251.957 268.689 252.226 268.307C252.495 267.924 252.629 267.479 252.629 266.972C252.629 266.562 252.533 266.212 252.339 265.92C252.146 265.629 251.86 265.377 251.482 265.165C251.107 264.953 250.641 264.763 250.084 264.597L248.726 264.188C247.817 263.911 247.122 263.534 246.641 263.057C246.163 262.58 245.925 261.985 245.925 261.273C245.925 260.674 246.084 260.144 246.402 259.682C246.72 259.216 247.152 258.85 247.697 258.585C248.247 258.32 248.866 258.188 249.555 258.188C250.249 258.188 250.86 258.322 251.391 258.591C251.921 258.856 252.341 259.222 252.652 259.688C252.963 260.15 253.135 260.678 253.169 261.273H252.47ZM256.845 258.364V270H256.135V258.364H256.845ZM268.366 262C268.279 261.606 268.132 261.225 267.923 260.858C267.715 260.487 267.448 260.153 267.122 259.858C266.8 259.559 266.421 259.322 265.986 259.148C265.554 258.973 265.069 258.886 264.531 258.886C263.709 258.886 262.98 259.102 262.344 259.534C261.711 259.962 261.215 260.574 260.855 261.369C260.499 262.161 260.321 263.098 260.321 264.182C260.321 265.254 260.499 266.187 260.855 266.983C261.211 267.778 261.709 268.394 262.349 268.83C262.993 269.261 263.741 269.477 264.594 269.477C265.355 269.477 266.029 269.301 266.616 268.949C267.207 268.597 267.668 268.093 267.997 267.438C268.327 266.782 268.488 265.998 268.48 265.085L268.73 265.205H264.776V264.545H269.173V265.205C269.173 266.231 268.976 267.116 268.582 267.858C268.192 268.597 267.651 269.165 266.957 269.562C266.268 269.96 265.48 270.159 264.594 270.159C263.594 270.159 262.721 269.911 261.974 269.415C261.228 268.919 260.649 268.223 260.236 267.33C259.827 266.432 259.622 265.383 259.622 264.182C259.622 263.28 259.74 262.462 259.974 261.727C260.209 260.992 260.545 260.364 260.98 259.841C261.416 259.314 261.935 258.911 262.537 258.631C263.139 258.347 263.804 258.205 264.531 258.205C265.19 258.205 265.783 258.314 266.31 258.534C266.836 258.75 267.291 259.042 267.673 259.409C268.06 259.773 268.372 260.18 268.611 260.631C268.849 261.078 269.01 261.534 269.094 262H268.366ZM281.312 264.182C281.312 265.383 281.104 266.432 280.688 267.33C280.271 268.223 279.691 268.919 278.949 269.415C278.21 269.911 277.358 270.159 276.392 270.159C275.422 270.159 274.566 269.911 273.824 269.415C273.085 268.915 272.508 268.218 272.091 267.324C271.674 266.426 271.466 265.379 271.466 264.182C271.466 262.981 271.674 261.934 272.091 261.04C272.511 260.146 273.091 259.451 273.83 258.955C274.568 258.455 275.422 258.205 276.392 258.205C277.358 258.205 278.21 258.453 278.949 258.949C279.691 259.445 280.271 260.142 280.688 261.04C281.104 261.934 281.312 262.981 281.312 264.182ZM280.619 264.182C280.619 263.102 280.438 262.167 280.074 261.375C279.714 260.583 279.216 259.972 278.58 259.54C277.943 259.104 277.214 258.886 276.392 258.886C275.57 258.886 274.841 259.102 274.205 259.534C273.568 259.962 273.068 260.574 272.705 261.369C272.345 262.161 272.165 263.098 272.165 264.182C272.165 265.254 272.343 266.187 272.699 266.983C273.059 267.775 273.557 268.388 274.193 268.824C274.83 269.259 275.563 269.477 276.392 269.477C277.214 269.477 277.943 269.261 278.58 268.83C279.216 268.394 279.714 267.78 280.074 266.989C280.438 266.197 280.619 265.261 280.619 264.182Z" fill="#4E2525"/>
</svg>
